<svg width="225" height="36" viewBox="0 0 225 36" fill="none" xmlns="http://www.w3.org/2000/svg">
<rect width="225" height="36" rx="18" fill="#EDFAFC"/>
<path d="M39.9393 8.75184V8.60736L39.8141 8.53522L33.3858 4.83118L33.3794 4.82749L33.3728 4.82418L33.3011 4.78833L33.1807 4.72815L33.0642 4.79552L26.8448 8.39127L20.6868 4.82053L20.6287 4.78567L20.5025 4.7099L20.375 4.78348L13.875 8.53532L13.75 8.60748V8.75184V16.2555V16.3999L13.875 16.472L20.1066 20.0681V27.2601V27.4046L20.2318 27.4767L26.6601 31.1808L26.6665 31.1844L26.6731 31.1878L26.7448 31.2236L26.8651 31.2838L26.9816 31.2165L33.4816 27.4646L33.6066 27.3925V27.2481V20.0561L39.8143 16.472L39.9393 16.3998V16.2555V8.75184ZM14.5248 9.05156L20.4879 5.6113L26.4394 9.05142V15.9559L20.4879 19.3961L14.5248 15.9558V9.05156ZM32.8199 20.08V26.9604L26.8566 30.4007L20.8934 26.9604V20.068L26.8447 16.6279L32.8199 20.08ZM33.2131 19.3961L27.25 15.9558V9.06337L33.2014 5.62325L39.1645 9.06351V15.9559L33.2131 19.3961Z" fill="#62DFEC" stroke="#62DFEC" stroke-width="0.5"/>
<path d="M36.8932 10.8667L35.2682 11.7867L33.2131 10.5799L31.9585 11.2848L36.8574 14.1644L36.8454 15.0965L33.1533 17.1994L29.509 15.0487L31.1341 14.1286L33.1772 15.3235L34.4318 14.6185L29.521 11.7389L29.5329 10.795L33.225 8.70398L36.8932 10.8667Z" fill="#0F246B"/>
<path d="M18.4329 11.7628V14.1405L20.488 15.3235L23.3557 13.6746L24.1682 15.0726L20.488 17.1994L16.8079 15.0726V10.8308L20.488 8.70398L24.1682 10.8308L23.3557 12.2288L20.488 10.5799L18.4329 11.7628Z" fill="#0F246B"/>
<path d="M28.8998 24.703V22.3253L26.8447 21.1304L23.977 22.7912L23.1646 21.3933L26.8447 19.2664L30.5248 21.3933V25.635L26.8447 27.7619L23.1646 25.635L23.977 24.2371L26.8447 25.8859L28.8998 24.703Z" fill="#0F246B"/>
<path d="M49.1692 23.14C48.5252 23.14 47.9419 23.0653 47.4192 22.916C46.9059 22.7573 46.4485 22.5333 46.0472 22.244C45.6459 21.9453 45.2865 21.5953 44.9692 21.194L46.4112 19.556C46.8779 20.1813 47.3445 20.6013 47.8112 20.816C48.2872 21.0307 48.7772 21.138 49.2812 21.138C49.5332 21.138 49.7619 21.1053 49.9672 21.04C50.1725 20.9747 50.3312 20.8813 50.4432 20.76C50.5552 20.6293 50.6112 20.4707 50.6112 20.284C50.6112 20.144 50.5739 20.018 50.4992 19.906C50.4339 19.794 50.3405 19.696 50.2192 19.612C50.0979 19.528 49.9532 19.4533 49.7852 19.388C49.6172 19.3133 49.4399 19.2527 49.2532 19.206C49.0665 19.15 48.8752 19.1033 48.6792 19.066C48.1379 18.9447 47.6665 18.7953 47.2652 18.618C46.8639 18.4407 46.5279 18.226 46.2572 17.974C45.9959 17.7127 45.7999 17.4187 45.6692 17.092C45.5385 16.756 45.4732 16.3827 45.4732 15.972C45.4732 15.5333 45.5712 15.132 45.7672 14.768C45.9725 14.3947 46.2432 14.0773 46.5792 13.816C46.9245 13.5453 47.3212 13.34 47.7692 13.2C48.2172 13.0507 48.6839 12.976 49.1692 12.976C49.8132 12.976 50.3639 13.046 50.8212 13.186C51.2879 13.3167 51.6845 13.508 52.0112 13.76C52.3472 14.012 52.6319 14.3153 52.8652 14.67L51.3952 16.084C51.1992 15.8413 50.9845 15.6407 50.7512 15.482C50.5272 15.3233 50.2845 15.202 50.0232 15.118C49.7712 15.034 49.5099 14.992 49.2392 14.992C48.9592 14.992 48.7165 15.0293 48.5112 15.104C48.3152 15.1693 48.1612 15.2673 48.0492 15.398C47.9372 15.5193 47.8812 15.6687 47.8812 15.846C47.8812 16.0047 47.9279 16.14 48.0212 16.252C48.1145 16.364 48.2405 16.4667 48.3992 16.56C48.5579 16.644 48.7399 16.7187 48.9452 16.784C49.1505 16.84 49.3652 16.8867 49.5892 16.924C50.1025 17.0267 50.5645 17.162 50.9752 17.33C51.3952 17.498 51.7545 17.7033 52.0532 17.946C52.3612 18.1887 52.5945 18.478 52.7532 18.814C52.9212 19.1407 53.0052 19.5233 53.0052 19.962C53.0052 20.6433 52.8372 21.222 52.5012 21.698C52.1745 22.1647 51.7219 22.524 51.1432 22.776C50.5739 23.0187 49.9159 23.14 49.1692 23.14ZM56.6003 23.126C55.9749 23.126 55.4149 22.9627 54.9203 22.636C54.4349 22.3 54.0476 21.8427 53.7583 21.264C53.4689 20.676 53.3243 20.0133 53.3243 19.276C53.3243 18.52 53.4689 17.8527 53.7583 17.274C54.0476 16.6953 54.4443 16.2427 54.9483 15.916C55.4523 15.58 56.0263 15.412 56.6703 15.412C57.0249 15.412 57.3469 15.4633 57.6363 15.566C57.9349 15.6687 58.1963 15.8133 58.4203 16C58.6443 16.1773 58.8356 16.3873 58.9943 16.63C59.1529 16.8633 59.2696 17.1153 59.3443 17.386L58.8823 17.33V15.566H61.1083V23H58.8403V21.208L59.3443 21.194C59.2696 21.4553 59.1483 21.7027 58.9803 21.936C58.8123 22.1693 58.6069 22.3747 58.3643 22.552C58.1216 22.7293 57.8509 22.8693 57.5523 22.972C57.2536 23.0747 56.9363 23.126 56.6003 23.126ZM57.2163 21.236C57.5616 21.236 57.8603 21.1567 58.1123 20.998C58.3643 20.8393 58.5603 20.6153 58.7003 20.326C58.8403 20.0273 58.9103 19.6773 58.9103 19.276C58.9103 18.8747 58.8403 18.5293 58.7003 18.24C58.5603 17.9413 58.3643 17.7127 58.1123 17.554C57.8603 17.386 57.5616 17.302 57.2163 17.302C56.8803 17.302 56.5863 17.386 56.3343 17.554C56.0916 17.7127 55.9003 17.9413 55.7603 18.24C55.6203 18.5293 55.5503 18.8747 55.5503 19.276C55.5503 19.6773 55.6203 20.0273 55.7603 20.326C55.9003 20.6153 56.0916 20.8393 56.3343 20.998C56.5863 21.1567 56.8803 21.236 57.2163 21.236ZM56.3763 14.754L55.7183 13.732L58.2243 11.744L59.2463 13.214L56.3763 14.754ZM62.3848 23V15.566H64.5128L64.5828 17.078L64.1348 17.246C64.2374 16.91 64.4194 16.6067 64.6808 16.336C64.9514 16.056 65.2734 15.832 65.6468 15.664C66.0201 15.496 66.4121 15.412 66.8228 15.412C67.3828 15.412 67.8541 15.5287 68.2368 15.762C68.6194 15.986 68.9088 16.3267 69.1048 16.784C69.3008 17.232 69.3988 17.7827 69.3988 18.436V23H67.1448V18.618C67.1448 18.3193 67.1028 18.072 67.0188 17.876C66.9348 17.68 66.8041 17.5353 66.6268 17.442C66.4588 17.3393 66.2488 17.2927 65.9968 17.302C65.8008 17.302 65.6188 17.3347 65.4508 17.4C65.2828 17.456 65.1381 17.5447 65.0168 17.666C64.8954 17.778 64.7974 17.9087 64.7228 18.058C64.6574 18.2073 64.6248 18.3707 64.6248 18.548V23H63.5188C63.2574 23 63.0334 23 62.8468 23C62.6601 23 62.5061 23 62.3848 23ZM73.9735 26.22C73.3668 26.22 72.7602 26.1313 72.1535 25.954C71.5562 25.7767 71.0708 25.548 70.6975 25.268L71.4815 23.7C71.6775 23.8307 71.8922 23.9427 72.1255 24.036C72.3682 24.1387 72.6202 24.218 72.8815 24.274C73.1428 24.33 73.4088 24.358 73.6795 24.358C74.1555 24.358 74.5428 24.288 74.8415 24.148C75.1402 24.008 75.3642 23.7933 75.5135 23.504C75.6628 23.224 75.7375 22.8693 75.7375 22.44V21.194L76.1715 21.264C76.1062 21.572 75.9428 21.852 75.6815 22.104C75.4295 22.356 75.1168 22.5613 74.7435 22.72C74.3702 22.8693 73.9735 22.944 73.5535 22.944C72.8815 22.944 72.2795 22.79 71.7475 22.482C71.2248 22.1647 70.8095 21.7307 70.5015 21.18C70.2028 20.62 70.0535 19.976 70.0535 19.248C70.0535 18.5013 70.2028 17.8433 70.5015 17.274C70.8002 16.6953 71.2108 16.2427 71.7335 15.916C72.2562 15.58 72.8442 15.412 73.4975 15.412C73.7775 15.412 74.0435 15.4447 74.2955 15.51C74.5568 15.5753 74.7948 15.664 75.0095 15.776C75.2335 15.8787 75.4295 16.0047 75.5975 16.154C75.7748 16.294 75.9148 16.448 76.0175 16.616C76.1295 16.784 76.2042 16.9567 76.2415 17.134L75.7795 17.246L75.8635 15.566H77.9915V22.398C77.9915 23.0047 77.8982 23.5413 77.7115 24.008C77.5342 24.484 77.2682 24.8853 76.9135 25.212C76.5682 25.548 76.1482 25.8 75.6535 25.968C75.1588 26.136 74.5988 26.22 73.9735 26.22ZM74.0295 21.208C74.3935 21.208 74.7062 21.1287 74.9675 20.97C75.2382 20.802 75.4435 20.5733 75.5835 20.284C75.7328 19.9947 75.8075 19.654 75.8075 19.262C75.8075 18.87 75.7328 18.5293 75.5835 18.24C75.4435 17.9413 75.2382 17.7127 74.9675 17.554C74.7062 17.386 74.3935 17.302 74.0295 17.302C73.6748 17.302 73.3668 17.386 73.1055 17.554C72.8442 17.7127 72.6388 17.9413 72.4895 18.24C72.3495 18.5293 72.2795 18.87 72.2795 19.262C72.2795 19.654 72.3495 19.9947 72.4895 20.284C72.6388 20.5733 72.8442 20.802 73.1055 20.97C73.3668 21.1287 73.6748 21.208 74.0295 21.208ZM85.1771 20.816L84.3511 19.136L87.8231 15.566H90.7771L85.1771 20.816ZM83.0211 23V12.64H85.2611V23H83.0211ZM88.0611 23L85.4431 19.612L87.0251 18.38L90.7071 23H88.0611ZM91.2108 23V15.566H93.4508V23H91.2108ZM92.3308 14.096C91.9108 14.096 91.5794 13.998 91.3368 13.802C91.1034 13.5967 90.9868 13.3073 90.9868 12.934C90.9868 12.598 91.1081 12.3227 91.3508 12.108C91.5934 11.8933 91.9201 11.786 92.3308 11.786C92.7508 11.786 93.0774 11.8887 93.3108 12.094C93.5441 12.29 93.6608 12.57 93.6608 12.934C93.6608 13.2793 93.5394 13.5593 93.2968 13.774C93.0634 13.9887 92.7414 14.096 92.3308 14.096ZM98.3975 23.14C97.5761 23.14 96.8621 22.9767 96.2555 22.65C95.6488 22.314 95.1775 21.8613 94.8415 21.292C94.5055 20.7133 94.3375 20.0553 94.3375 19.318C94.3375 18.7487 94.4308 18.226 94.6175 17.75C94.8041 17.274 95.0655 16.8633 95.4015 16.518C95.7375 16.1633 96.1341 15.8927 96.5915 15.706C97.0581 15.51 97.5668 15.412 98.1175 15.412C98.6401 15.412 99.1161 15.5053 99.5455 15.692C99.9841 15.8787 100.362 16.14 100.679 16.476C100.997 16.812 101.239 17.2087 101.407 17.666C101.575 18.1233 101.65 18.6227 101.631 19.164L101.617 19.766H95.6955L95.3735 18.506H99.7975L99.5595 18.772V18.492C99.5408 18.2587 99.4661 18.0533 99.3355 17.876C99.2141 17.6893 99.0508 17.5447 98.8455 17.442C98.6401 17.3393 98.4068 17.288 98.1455 17.288C97.7815 17.288 97.4688 17.3627 97.2075 17.512C96.9555 17.652 96.7641 17.862 96.6335 18.142C96.5028 18.4127 96.4375 18.7487 96.4375 19.15C96.4375 19.5607 96.5215 19.92 96.6895 20.228C96.8668 20.5267 97.1188 20.76 97.4455 20.928C97.7815 21.096 98.1781 21.18 98.6355 21.18C98.9528 21.18 99.2328 21.1333 99.4755 21.04C99.7275 20.9467 99.9981 20.788 100.287 20.564L101.337 22.048C101.048 22.3 100.74 22.5053 100.413 22.664C100.087 22.8227 99.7508 22.9393 99.4055 23.014C99.0695 23.098 98.7335 23.14 98.3975 23.14ZM96.2555 14.572L95.5975 13.83L97.4455 12.318H98.7755L100.637 13.83L99.9655 14.572L97.9075 13.62H98.3275L96.2555 14.572ZM100.819 12.444L99.9235 11.814L101.253 9.518L102.653 10.512L100.819 12.444ZM102.359 23V15.566H104.487L104.557 17.078L104.109 17.246C104.211 16.91 104.393 16.6067 104.655 16.336C104.925 16.056 105.247 15.832 105.621 15.664C105.994 15.496 106.386 15.412 106.797 15.412C107.357 15.412 107.828 15.5287 108.211 15.762C108.593 15.986 108.883 16.3267 109.079 16.784C109.275 17.232 109.373 17.7827 109.373 18.436V23H107.119V18.618C107.119 18.3193 107.077 18.072 106.993 17.876C106.909 17.68 106.778 17.5353 106.601 17.442C106.433 17.3393 106.223 17.2927 105.971 17.302C105.775 17.302 105.593 17.3347 105.425 17.4C105.257 17.456 105.112 17.5447 104.991 17.666C104.869 17.778 104.771 17.9087 104.697 18.058C104.631 18.2073 104.599 18.3707 104.599 18.548V23H103.493C103.231 23 103.007 23 102.821 23C102.634 23 102.48 23 102.359 23ZM116.304 20.13L115.688 18.128L120.546 13.2H123.36L116.304 20.13ZM114.568 23V13.2H116.948V23H114.568ZM120.854 23L117.214 18.212L118.824 16.826L123.626 23H120.854ZM123.979 23V12.64H126.177V17.078L125.729 17.246C125.832 16.91 126.014 16.6067 126.275 16.336C126.546 16.056 126.868 15.832 127.241 15.664C127.615 15.496 128.007 15.412 128.417 15.412C128.977 15.412 129.449 15.5287 129.831 15.762C130.214 15.986 130.503 16.3267 130.699 16.784C130.895 17.232 130.993 17.7827 130.993 18.436V23H128.739V18.618C128.739 18.3193 128.697 18.072 128.613 17.876C128.529 17.68 128.399 17.5353 128.221 17.442C128.053 17.3393 127.843 17.2927 127.591 17.302C127.395 17.302 127.213 17.3347 127.045 17.4C126.877 17.456 126.733 17.5447 126.611 17.666C126.49 17.778 126.392 17.9087 126.317 18.058C126.252 18.2073 126.219 18.3707 126.219 18.548V23H125.113C124.852 23 124.628 23 124.441 23C124.255 23 124.101 23 123.979 23ZM135.666 23.14C134.891 23.14 134.201 22.972 133.594 22.636C132.997 22.3 132.521 21.8427 132.166 21.264C131.821 20.6853 131.648 20.0227 131.648 19.276C131.648 18.5293 131.821 17.8667 132.166 17.288C132.521 16.7093 132.997 16.252 133.594 15.916C134.201 15.58 134.891 15.412 135.666 15.412C136.441 15.412 137.127 15.58 137.724 15.916C138.331 16.252 138.807 16.7093 139.152 17.288C139.497 17.8667 139.67 18.5293 139.67 19.276C139.67 20.0227 139.497 20.6853 139.152 21.264C138.807 21.8427 138.331 22.3 137.724 22.636C137.127 22.972 136.441 23.14 135.666 23.14ZM135.666 21.208C136.002 21.208 136.301 21.124 136.562 20.956C136.823 20.788 137.029 20.5593 137.178 20.27C137.327 19.9807 137.397 19.6493 137.388 19.276C137.397 18.9027 137.327 18.5713 137.178 18.282C137.029 17.9833 136.823 17.75 136.562 17.582C136.301 17.414 136.002 17.33 135.666 17.33C135.33 17.33 135.027 17.414 134.756 17.582C134.495 17.75 134.289 17.9833 134.14 18.282C133.991 18.5713 133.921 18.9027 133.93 19.276C133.921 19.6493 133.991 19.9807 134.14 20.27C134.289 20.5593 134.495 20.788 134.756 20.956C135.027 21.124 135.33 21.208 135.666 21.208ZM143.179 23.126C142.553 23.126 141.993 22.9627 141.499 22.636C141.013 22.3 140.626 21.8427 140.337 21.264C140.047 20.676 139.903 20.0133 139.903 19.276C139.903 18.52 140.047 17.8527 140.337 17.274C140.626 16.6953 141.023 16.2427 141.527 15.916C142.031 15.58 142.605 15.412 143.249 15.412C143.603 15.412 143.925 15.4633 144.215 15.566C144.513 15.6687 144.775 15.8133 144.999 16C145.223 16.1773 145.414 16.3873 145.573 16.63C145.731 16.8633 145.848 17.1153 145.923 17.386L145.461 17.33V15.566H147.687V23H145.419V21.208L145.923 21.194C145.848 21.4553 145.727 21.7027 145.559 21.936C145.391 22.1693 145.185 22.3747 144.943 22.552C144.7 22.7293 144.429 22.8693 144.131 22.972C143.832 23.0747 143.515 23.126 143.179 23.126ZM143.795 21.236C144.14 21.236 144.439 21.1567 144.691 20.998C144.943 20.8393 145.139 20.6153 145.279 20.326C145.419 20.0273 145.489 19.6773 145.489 19.276C145.489 18.8747 145.419 18.5293 145.279 18.24C145.139 17.9413 144.943 17.7127 144.691 17.554C144.439 17.386 144.14 17.302 143.795 17.302C143.459 17.302 143.165 17.386 142.913 17.554C142.67 17.7127 142.479 17.9413 142.339 18.24C142.199 18.5293 142.129 18.8747 142.129 19.276C142.129 19.6773 142.199 20.0273 142.339 20.326C142.479 20.6153 142.67 20.8393 142.913 20.998C143.165 21.1567 143.459 21.236 143.795 21.236ZM152.748 23V12.64H154.946V17.078L154.498 17.246C154.6 16.91 154.782 16.6067 155.044 16.336C155.314 16.056 155.636 15.832 156.01 15.664C156.383 15.496 156.775 15.412 157.186 15.412C157.746 15.412 158.217 15.5287 158.6 15.762C158.982 15.986 159.272 16.3267 159.468 16.784C159.664 17.232 159.762 17.7827 159.762 18.436V23H157.508V18.618C157.508 18.3193 157.466 18.072 157.382 17.876C157.298 17.68 157.167 17.5353 156.99 17.442C156.822 17.3393 156.612 17.2927 156.36 17.302C156.164 17.302 155.982 17.3347 155.814 17.4C155.646 17.456 155.501 17.5447 155.38 17.666C155.258 17.778 155.16 17.9087 155.086 18.058C155.02 18.2073 154.988 18.3707 154.988 18.548V23H153.882C153.62 23 153.396 23 153.21 23C153.023 23 152.869 23 152.748 23ZM164.434 23.14C163.66 23.14 162.969 22.972 162.362 22.636C161.765 22.3 161.289 21.8427 160.934 21.264C160.589 20.6853 160.416 20.0227 160.416 19.276C160.416 18.5293 160.589 17.8667 160.934 17.288C161.289 16.7093 161.765 16.252 162.362 15.916C162.969 15.58 163.66 15.412 164.434 15.412C165.209 15.412 165.895 15.58 166.492 15.916C167.099 16.252 167.575 16.7093 167.92 17.288C168.266 17.8667 168.438 18.5293 168.438 19.276C168.438 20.0227 168.266 20.6853 167.92 21.264C167.575 21.8427 167.099 22.3 166.492 22.636C165.895 22.972 165.209 23.14 164.434 23.14ZM164.434 21.208C164.77 21.208 165.069 21.124 165.33 20.956C165.592 20.788 165.797 20.5593 165.946 20.27C166.096 19.9807 166.166 19.6493 166.156 19.276C166.166 18.9027 166.096 18.5713 165.946 18.282C165.797 17.9833 165.592 17.75 165.33 17.582C165.069 17.414 164.77 17.33 164.434 17.33C164.098 17.33 163.795 17.414 163.524 17.582C163.263 17.75 163.058 17.9833 162.908 18.282C162.759 18.5713 162.689 18.9027 162.698 19.276C162.689 19.6493 162.759 19.9807 162.908 20.27C163.058 20.5593 163.263 20.788 163.524 20.956C163.795 21.124 164.098 21.208 164.434 21.208ZM164.434 26.136C164.005 26.136 163.669 26.0287 163.426 25.814C163.184 25.6087 163.062 25.3193 163.062 24.946C163.062 24.5913 163.184 24.302 163.426 24.078C163.678 23.8633 164.014 23.756 164.434 23.756C164.864 23.756 165.2 23.8587 165.442 24.064C165.685 24.2693 165.806 24.5633 165.806 24.946C165.806 25.2913 165.68 25.576 165.428 25.8C165.186 26.024 164.854 26.136 164.434 26.136ZM172.465 23.14C171.746 23.14 171.102 22.972 170.533 22.636C169.964 22.3 169.511 21.8427 169.175 21.264C168.848 20.676 168.685 20.0133 168.685 19.276C168.685 18.5387 168.848 17.8807 169.175 17.302C169.511 16.714 169.964 16.252 170.533 15.916C171.102 15.58 171.746 15.412 172.465 15.412C173.128 15.412 173.734 15.5287 174.285 15.762C174.845 15.9953 175.288 16.322 175.615 16.742L174.397 18.198C174.266 18.0487 174.112 17.9087 173.935 17.778C173.758 17.6473 173.562 17.5447 173.347 17.47C173.132 17.3953 172.908 17.358 172.675 17.358C172.32 17.358 172.008 17.442 171.737 17.61C171.466 17.7687 171.256 17.9927 171.107 18.282C170.958 18.5713 170.883 18.9027 170.883 19.276C170.883 19.6307 170.958 19.9527 171.107 20.242C171.266 20.5313 171.48 20.76 171.751 20.928C172.022 21.096 172.33 21.18 172.675 21.18C172.918 21.18 173.142 21.152 173.347 21.096C173.552 21.0307 173.739 20.9373 173.907 20.816C174.084 20.6947 174.248 20.5453 174.397 20.368L175.601 21.838C175.284 22.2393 174.84 22.5567 174.271 22.79C173.711 23.0233 173.109 23.14 172.465 23.14ZM179.748 23L179.286 21.852L182.142 18.73C182.301 18.5527 182.474 18.352 182.66 18.128C182.847 17.904 183.029 17.6753 183.206 17.442C183.384 17.1993 183.524 16.966 183.626 16.742C183.738 16.518 183.794 16.3127 183.794 16.126C183.794 15.9393 183.752 15.776 183.668 15.636C183.584 15.496 183.463 15.3887 183.304 15.314C183.146 15.23 182.945 15.188 182.702 15.188C182.488 15.188 182.282 15.244 182.086 15.356C181.89 15.4587 181.704 15.622 181.526 15.846C181.358 16.07 181.2 16.3453 181.05 16.672L179.286 15.72C179.482 15.1787 179.758 14.7027 180.112 14.292C180.476 13.872 180.901 13.55 181.386 13.326C181.872 13.0927 182.39 12.976 182.94 12.976C183.519 12.9853 184.042 13.1113 184.508 13.354C184.975 13.5873 185.344 13.9187 185.614 14.348C185.894 14.768 186.034 15.2627 186.034 15.832C186.034 16.028 186.011 16.2333 185.964 16.448C185.918 16.6627 185.848 16.8867 185.754 17.12C185.661 17.344 185.535 17.5867 185.376 17.848C185.227 18.1 185.045 18.366 184.83 18.646C184.616 18.926 184.364 19.2247 184.074 19.542L181.848 21.964L181.568 20.9H186.468V23H179.748ZM190.61 23.14C189.733 23.14 188.982 22.9393 188.356 22.538C187.74 22.1367 187.269 21.5627 186.942 20.816C186.616 20.06 186.452 19.1547 186.452 18.1C186.452 17.0453 186.616 16.1447 186.942 15.398C187.269 14.642 187.74 14.0633 188.356 13.662C188.982 13.2607 189.733 13.06 190.61 13.06C191.488 13.06 192.239 13.2607 192.864 13.662C193.49 14.0633 193.966 14.642 194.292 15.398C194.619 16.1447 194.782 17.0453 194.782 18.1C194.782 19.1547 194.619 20.06 194.292 20.816C193.966 21.5627 193.49 22.1367 192.864 22.538C192.239 22.9393 191.488 23.14 190.61 23.14ZM190.61 21.124C191.217 21.124 191.684 20.8627 192.01 20.34C192.346 19.8173 192.514 19.0707 192.514 18.1C192.514 17.1013 192.346 16.336 192.01 15.804C191.684 15.2627 191.217 14.992 190.61 14.992C190.004 14.992 189.532 15.2627 189.196 15.804C188.87 16.336 188.706 17.1013 188.706 18.1C188.706 19.0707 188.87 19.8173 189.196 20.34C189.532 20.8627 190.004 21.124 190.61 21.124ZM195.466 23L195.004 21.852L197.86 18.73C198.018 18.5527 198.191 18.352 198.378 18.128C198.564 17.904 198.746 17.6753 198.924 17.442C199.101 17.1993 199.241 16.966 199.344 16.742C199.456 16.518 199.512 16.3127 199.512 16.126C199.512 15.9393 199.47 15.776 199.386 15.636C199.302 15.496 199.18 15.3887 199.022 15.314C198.863 15.23 198.662 15.188 198.42 15.188C198.205 15.188 198 15.244 197.804 15.356C197.608 15.4587 197.421 15.622 197.244 15.846C197.076 16.07 196.917 16.3453 196.768 16.672L195.004 15.72C195.2 15.1787 195.475 14.7027 195.83 14.292C196.194 13.872 196.618 13.55 197.104 13.326C197.589 13.0927 198.107 12.976 198.658 12.976C199.236 12.9853 199.759 13.1113 200.226 13.354C200.692 13.5873 201.061 13.9187 201.332 14.348C201.612 14.768 201.752 15.2627 201.752 15.832C201.752 16.028 201.728 16.2333 201.682 16.448C201.635 16.6627 201.565 16.8867 201.472 17.12C201.378 17.344 201.252 17.5867 201.094 17.848C200.944 18.1 200.762 18.366 200.548 18.646C200.333 18.926 200.081 19.2247 199.792 19.542L197.566 21.964L197.286 20.9H202.186V23H195.466ZM205.628 23.14C204.834 23.14 204.139 22.9767 203.542 22.65C202.954 22.314 202.417 21.74 201.932 20.928L203.64 19.822C203.845 20.1487 204.055 20.41 204.27 20.606C204.494 20.802 204.722 20.9467 204.956 21.04C205.198 21.124 205.45 21.166 205.712 21.166C205.973 21.166 206.211 21.11 206.426 20.998C206.65 20.8767 206.827 20.7087 206.958 20.494C207.098 20.2793 207.168 20.0367 207.168 19.766C207.168 19.4767 207.107 19.234 206.986 19.038C206.874 18.8327 206.706 18.6787 206.482 18.576C206.267 18.4733 206.006 18.422 205.698 18.422C205.558 18.422 205.408 18.4407 205.25 18.478C205.091 18.506 204.923 18.548 204.746 18.604C204.568 18.66 204.386 18.7347 204.2 18.828L203.682 17.442L206.062 14.852L206.706 15.202L202.618 15.118V13.116H208.638L209.072 13.984L205.838 17.456L205.278 16.798C205.352 16.7607 205.474 16.728 205.642 16.7C205.819 16.6627 205.987 16.644 206.146 16.644C206.584 16.644 206.995 16.7233 207.378 16.882C207.76 17.0407 208.101 17.26 208.4 17.54C208.698 17.82 208.932 18.1513 209.1 18.534C209.268 18.9073 209.352 19.3087 209.352 19.738C209.352 20.3913 209.184 20.9747 208.848 21.488C208.521 21.992 208.073 22.3933 207.504 22.692C206.944 22.9907 206.318 23.14 205.628 23.14Z" fill="#13135A"/>
</svg>
